<?xml version="1.0" encoding="UTF-8"?>
<svg xmlns="http://www.w3.org/2000/svg" id="Layer_3" data-name="Layer 3" viewBox="0 0 64 64" width="512" height="512"><path fill="#E1F5FE" d="M60,3H57V2a1,1,0,0,0-1-1H8A1,1,0,0,0,7,2V3H4A3,3,0,0,0,1,6V58a3,3,0,0,0,3,3H7v1a1,1,0,0,0,1,1H56a1,1,0,0,0,1-1V61h3a3,3,0,0,0,3-3V6A3,3,0,0,0,60,3ZM55,3V41H9V3ZM13,43H31V57H13Zm20,0H51V57H33ZM4,59a1,1,0,0,1-1-1V6A1,1,0,0,1,4,5H7V59ZM9,43h2V58a1,1,0,0,0,1,1H31v2H9ZM33,61V59H52a1,1,0,0,0,1-1V43h2V61Zm28-3a1,1,0,0,1-1,1H57V5h3a1,1,0,0,1,1,1Z"/><path fill="#E1F5FE" d="M12,21H52a1,1,0,0,0,1-1V6a1,1,0,0,0-1-1H12a1,1,0,0,0-1,1V20A1,1,0,0,0,12,21Zm7-2H17V11h2Zm16,0H33V11h2Zm-4,0H29V11h2Zm-4,0H25V11h2Zm13.618,0,3.829-7.658,2.211,1.1L43.382,19ZM13,7H51V19H45.618L48.9,12.447a1,1,0,0,0-.448-1.342l-4-2a1,1,0,0,0-1.342.448L38.382,19H37V10a1,1,0,0,0-1-1H24a1,1,0,0,0-1,1v9H21V10a1,1,0,0,0-1-1H16a1,1,0,0,0-1,1v9H13Z"/><path fill="#E1F5FE" d="M12,39H52a1,1,0,0,0,1-1V24a1,1,0,0,0-1-1H12a1,1,0,0,0-1,1V38A1,1,0,0,0,12,39Zm7-2H17V29h2Zm16,0H33V29h2Zm-4,0H29V29h2Zm-4,0H25V29h2Zm20,0H45V29h2ZM13,25H51V37H49V28a1,1,0,0,0-1-1H44a1,1,0,0,0-1,1v9H37V28a1,1,0,0,0-1-1H24a1,1,0,0,0-1,1v9H21V28a1,1,0,0,0-1-1H16a1,1,0,0,0-1,1v9H13Z"/><circle fill="#E1F5FE" cx="27" cy="51" r="2"/><circle fill="#E1F5FE" cx="37" cy="51" r="2"/></svg>
